<mxfile host="Electron" compressed="false" modified="2024-03-01T10:59:02.334Z" agent="Mozilla/5.0 (Windows NT 10.0; Win64; x64) AppleWebKit/537.36 (KHTML, like Gecko) draw.io/23.1.5 Chrome/120.0.6099.109 Electron/28.1.0 Safari/537.36" etag="JA49zIbLAtD9n-3-vcwh" version="23.1.5" type="device">
  <diagram id="UBITVOTv7EuB15pHwEIP" name="Page-1">
    <mxGraphModel dx="1828" dy="1066" grid="1" gridSize="10" guides="1" tooltips="1" connect="1" arrows="1" fold="1" page="1" pageScale="1" pageWidth="900" pageHeight="1600" math="0" shadow="0">
      <root>
        <mxCell id="0" />
        <mxCell id="1" parent="0" />
        <mxCell id="wLuvKEZRffohtmjX3gD9-61" value="" style="group;labelBackgroundColor=none;html=1;labelBorderColor=none;fillColor=#D5E8D4;" parent="1" vertex="1" connectable="0">
          <mxGeometry x="40" y="40" width="520" height="1138" as="geometry" />
        </mxCell>
        <mxCell id="52" value="" style="rounded=0;whiteSpace=wrap;html=1;labelBackgroundColor=none;fillColor=default;gradientColor=none;strokeColor=default;container=0;backgroundOutline=0;movable=1;resizable=1;rotatable=1;deletable=1;editable=1;locked=0;connectable=1;strokeWidth=2;glass=0;shadow=0;labelBorderColor=none;align=center;" parent="wLuvKEZRffohtmjX3gD9-61" vertex="1">
          <mxGeometry width="520" height="1138" as="geometry" />
        </mxCell>
        <mxCell id="24" value="# currentState" style="edgeStyle=none;html=1;rounded=0;backgroundOutline=0;movable=1;resizable=1;rotatable=1;deletable=1;editable=1;locked=0;connectable=1;" parent="wLuvKEZRffohtmjX3gD9-61" source="2" edge="1">
          <mxGeometry x="0.4104" y="-38" relative="1" as="geometry">
            <Array as="points">
              <mxPoint x="364" y="450" />
            </Array>
            <mxPoint as="offset" />
            <mxPoint x="364" y="364" as="targetPoint" />
          </mxGeometry>
        </mxCell>
        <mxCell id="49" value="Vector = std::vector&lt;br&gt;Clock = std::chrono::high_resolution_clock" style="rounded=0;whiteSpace=wrap;html=1;labelBackgroundColor=none;labelBorderColor=none;align=left;container=0;backgroundOutline=0;movable=1;resizable=1;rotatable=1;deletable=1;editable=1;locked=0;connectable=1;fillColor=#eeeeee;strokeColor=default;fillStyle=auto;strokeWidth=1;dashed=1;perimeterSpacing=1;" parent="wLuvKEZRffohtmjX3gD9-61" vertex="1">
          <mxGeometry x="41.599999999999994" y="30" width="270.4" height="60" as="geometry" />
        </mxCell>
        <mxCell id="6" value="GameState" style="swimlane;fontStyle=3;align=center;verticalAlign=top;childLayout=stackLayout;horizontal=1;startSize=26;horizontalStack=0;resizeParent=1;resizeParentMax=0;resizeLast=0;collapsible=1;marginBottom=0;gradientColor=none;rounded=0;container=0;backgroundOutline=0;movable=1;resizable=1;rotatable=1;deletable=1;editable=1;locked=0;connectable=1;swimlaneFillColor=none;swimlaneLine=1;html=1;labelBorderColor=none;labelBackgroundColor=none;" parent="wLuvKEZRffohtmjX3gD9-61" vertex="1">
          <mxGeometry x="39" y="119" width="426.4" height="242" as="geometry">
            <mxRectangle x="81.6" y="190" width="96" height="26" as="alternateBounds" />
          </mxGeometry>
        </mxCell>
        <mxCell id="10" value="# render: SDL_Renderer*" style="text;strokeColor=none;fillColor=none;align=left;verticalAlign=top;spacingLeft=4;spacingRight=4;overflow=hidden;rotatable=1;points=[[0,0.5],[1,0.5]];portConstraint=eastwest;rounded=0;container=0;backgroundOutline=0;movable=1;resizable=1;deletable=1;editable=1;locked=0;connectable=1;swimlaneLine=1;html=1;labelBorderColor=none;labelBackgroundColor=none;" parent="wLuvKEZRffohtmjX3gD9-61" vertex="1">
          <mxGeometry x="39" y="145" width="426.4" height="26" as="geometry" />
        </mxCell>
        <mxCell id="53" value="# game: Game&amp;amp;" style="text;strokeColor=none;fillColor=none;align=left;verticalAlign=top;spacingLeft=4;spacingRight=4;overflow=hidden;rotatable=1;points=[[0,0.5],[1,0.5]];portConstraint=eastwest;rounded=0;container=0;backgroundOutline=0;movable=1;resizable=1;deletable=1;editable=1;locked=0;connectable=1;swimlaneLine=1;html=1;labelBorderColor=none;labelBackgroundColor=none;" parent="wLuvKEZRffohtmjX3gD9-61" vertex="1">
          <mxGeometry x="39" y="171" width="426.4" height="26" as="geometry" />
        </mxCell>
        <mxCell id="8" value="" style="line;strokeWidth=1;fillColor=none;align=left;verticalAlign=middle;spacingTop=-1;spacingLeft=3;spacingRight=3;rotatable=1;labelPosition=right;points=[];portConstraint=eastwest;rounded=0;container=0;backgroundOutline=0;movable=1;resizable=1;deletable=1;editable=1;locked=0;connectable=1;swimlaneLine=1;html=1;labelBorderColor=none;labelBackgroundColor=none;" parent="wLuvKEZRffohtmjX3gD9-61" vertex="1">
          <mxGeometry x="39" y="197" width="426.4" height="8" as="geometry" />
        </mxCell>
        <mxCell id="9" value="+ GameState(game: Game&amp;amp;, render: SDL_Renderer*)" style="text;strokeColor=none;fillColor=none;align=left;verticalAlign=top;spacingLeft=4;spacingRight=4;overflow=hidden;rotatable=1;points=[[0,0.5],[1,0.5]];portConstraint=eastwest;rounded=0;container=0;backgroundOutline=0;movable=1;resizable=1;deletable=1;editable=1;locked=0;connectable=1;swimlaneLine=1;html=1;labelBorderColor=none;labelBackgroundColor=none;" parent="wLuvKEZRffohtmjX3gD9-61" vertex="1">
          <mxGeometry x="39" y="205" width="426.4" height="26" as="geometry" />
        </mxCell>
        <mxCell id="13" value="+ ~GameState()" style="text;strokeColor=none;fillColor=none;align=left;verticalAlign=top;spacingLeft=4;spacingRight=4;overflow=hidden;rotatable=1;points=[[0,0.5],[1,0.5]];portConstraint=eastwest;rounded=0;container=0;backgroundOutline=0;movable=1;resizable=1;deletable=1;editable=1;locked=0;connectable=1;swimlaneLine=1;html=1;labelBorderColor=none;labelBackgroundColor=none;" parent="wLuvKEZRffohtmjX3gD9-61" vertex="1">
          <mxGeometry x="39" y="231" width="426.4" height="26" as="geometry" />
        </mxCell>
        <mxCell id="14" value="+ IsFPSLimited(): bool" style="text;strokeColor=none;fillColor=none;align=left;verticalAlign=top;spacingLeft=4;spacingRight=4;overflow=hidden;rotatable=1;points=[[0,0.5],[1,0.5]];portConstraint=eastwest;rounded=0;container=0;backgroundOutline=0;movable=1;resizable=1;deletable=1;editable=1;locked=0;connectable=1;swimlaneLine=1;html=1;labelBorderColor=none;labelBackgroundColor=none;" parent="wLuvKEZRffohtmjX3gD9-61" vertex="1">
          <mxGeometry x="39" y="257" width="426.4" height="26" as="geometry" />
        </mxCell>
        <mxCell id="15" value="+ Events(frame: uint32_t, totalMSec: uint32_t, deltaT: float): void" style="text;strokeColor=none;fillColor=none;align=left;verticalAlign=top;spacingLeft=4;spacingRight=4;overflow=hidden;rotatable=1;points=[[0,0.5],[1,0.5]];portConstraint=eastwest;fontStyle=2;rounded=0;container=0;backgroundOutline=0;movable=1;resizable=1;deletable=1;editable=1;locked=0;connectable=1;swimlaneLine=1;html=1;labelBorderColor=none;labelBackgroundColor=none;" parent="wLuvKEZRffohtmjX3gD9-61" vertex="1">
          <mxGeometry x="39" y="283" width="426.4" height="26" as="geometry" />
        </mxCell>
        <mxCell id="16" value="+ Update(frame: uint32_t, totalMSec: uint32_t, deltaT: float): void" style="text;strokeColor=none;fillColor=none;align=left;verticalAlign=top;spacingLeft=4;spacingRight=4;overflow=hidden;rotatable=1;points=[[0,0.5],[1,0.5]];portConstraint=eastwest;fontStyle=2;rounded=0;container=0;backgroundOutline=0;movable=1;resizable=1;deletable=1;editable=1;locked=0;connectable=1;swimlaneLine=1;html=1;labelBorderColor=none;labelBackgroundColor=none;" parent="wLuvKEZRffohtmjX3gD9-61" vertex="1">
          <mxGeometry x="39" y="309" width="426.4" height="26" as="geometry" />
        </mxCell>
        <mxCell id="17" value="+ Render(frame: uint32_t, totalMSec: uint32_t, deltaT: float): void" style="text;strokeColor=none;fillColor=none;align=left;verticalAlign=top;spacingLeft=4;spacingRight=4;overflow=hidden;rotatable=1;points=[[0,0.5],[1,0.5]];portConstraint=eastwest;fontStyle=2;rounded=0;container=0;backgroundOutline=0;movable=1;resizable=1;deletable=1;editable=1;locked=0;connectable=1;swimlaneLine=1;html=1;labelBorderColor=none;labelBackgroundColor=none;" parent="wLuvKEZRffohtmjX3gD9-61" vertex="1">
          <mxGeometry x="39" y="335" width="426.4" height="26" as="geometry" />
        </mxCell>
        <mxCell id="2" value="Game" style="swimlane;fontStyle=1;align=center;verticalAlign=top;childLayout=stackLayout;horizontal=1;startSize=26;horizontalStack=0;resizeParent=1;resizeParentMax=0;resizeLast=0;collapsible=1;marginBottom=0;rounded=0;container=0;backgroundOutline=0;movable=1;resizable=1;rotatable=1;deletable=1;editable=1;locked=0;connectable=1;html=1;labelBorderColor=none;labelBackgroundColor=none;" parent="wLuvKEZRffohtmjX3gD9-61" vertex="1">
          <mxGeometry x="39" y="430" width="425.0000000000001" height="553" as="geometry" />
        </mxCell>
        <mxCell id="11" style="edgeStyle=none;html=1;rounded=0;backgroundOutline=0;movable=1;resizable=1;rotatable=1;deletable=1;editable=1;locked=0;connectable=1;exitX=0.229;exitY=1.154;exitDx=0;exitDy=0;exitPerimeter=0;entryX=0.228;entryY=-0.002;entryDx=0;entryDy=0;entryPerimeter=0;" parent="wLuvKEZRffohtmjX3gD9-61" source="17" target="2" edge="1">
          <mxGeometry relative="1" as="geometry">
            <mxPoint x="139" y="409" as="targetPoint" />
          </mxGeometry>
        </mxCell>
        <mxCell id="12" value="# game" style="edgeLabel;html=1;align=center;verticalAlign=middle;resizable=1;points=[];rounded=0;container=0;backgroundOutline=0;movable=1;rotatable=1;deletable=1;editable=1;locked=0;connectable=1;" parent="11" vertex="1" connectable="0">
          <mxGeometry x="-0.1266" y="3" relative="1" as="geometry">
            <mxPoint x="28" as="offset" />
          </mxGeometry>
        </mxCell>
        <mxCell id="3" value="# window: SDL_Window*" style="text;strokeColor=none;fillColor=none;align=left;verticalAlign=top;spacingLeft=4;spacingRight=4;overflow=hidden;rotatable=1;points=[[0,0.5],[1,0.5]];portConstraint=eastwest;rounded=0;container=0;backgroundOutline=0;movable=1;resizable=1;deletable=1;editable=1;locked=0;connectable=1;html=1;labelBorderColor=none;labelBackgroundColor=none;" parent="wLuvKEZRffohtmjX3gD9-61" vertex="1">
          <mxGeometry x="39" y="455.9530685920578" width="425.0000000000001" height="25.953068592057768" as="geometry" />
        </mxCell>
        <mxCell id="18" value="# render: SDL_Renderer*" style="text;strokeColor=none;fillColor=none;align=left;verticalAlign=top;spacingLeft=4;spacingRight=4;overflow=hidden;rotatable=1;points=[[0,0.5],[1,0.5]];portConstraint=eastwest;rounded=0;container=0;backgroundOutline=0;movable=1;resizable=1;deletable=1;editable=1;locked=0;connectable=1;html=1;labelBorderColor=none;labelBackgroundColor=none;" parent="wLuvKEZRffohtmjX3gD9-61" vertex="1">
          <mxGeometry x="39" y="481.90613718411555" width="425.0000000000001" height="25.953068592057768" as="geometry" />
        </mxCell>
        <mxCell id="19" value="# isRunning: bool" style="text;strokeColor=none;fillColor=none;align=left;verticalAlign=top;spacingLeft=4;spacingRight=4;overflow=hidden;rotatable=1;points=[[0,0.5],[1,0.5]];portConstraint=eastwest;rounded=0;container=0;backgroundOutline=0;movable=1;resizable=1;deletable=1;editable=1;locked=0;connectable=1;html=1;labelBorderColor=none;labelBackgroundColor=none;" parent="wLuvKEZRffohtmjX3gD9-61" vertex="1">
          <mxGeometry x="39" y="507.8592057761733" width="425.0000000000001" height="25.953068592057768" as="geometry" />
        </mxCell>
        <mxCell id="20" value="# frame: uint32_t" style="text;strokeColor=none;fillColor=none;align=left;verticalAlign=top;spacingLeft=4;spacingRight=4;overflow=hidden;rotatable=1;points=[[0,0.5],[1,0.5]];portConstraint=eastwest;rounded=0;container=0;backgroundOutline=0;movable=1;resizable=1;deletable=1;editable=1;locked=0;connectable=1;html=1;labelBorderColor=none;labelBackgroundColor=none;" parent="wLuvKEZRffohtmjX3gD9-61" vertex="1">
          <mxGeometry x="39" y="533.8122743682311" width="425.0000000000001" height="25.953068592057768" as="geometry" />
        </mxCell>
        <mxCell id="21" value="# currentStateIdx: int" style="text;strokeColor=none;fillColor=none;align=left;verticalAlign=top;spacingLeft=4;spacingRight=4;overflow=hidden;rotatable=1;points=[[0,0.5],[1,0.5]];portConstraint=eastwest;rounded=0;container=0;backgroundOutline=0;movable=1;resizable=1;deletable=1;editable=1;locked=0;connectable=1;html=1;labelBorderColor=none;labelBackgroundColor=none;" parent="wLuvKEZRffohtmjX3gD9-61" vertex="1">
          <mxGeometry x="39" y="559.7653429602889" width="425.0000000000001" height="25.953068592057768" as="geometry" />
        </mxCell>
        <mxCell id="22" value="# nextStateIdx: int" style="text;strokeColor=none;fillColor=none;align=left;verticalAlign=top;spacingLeft=4;spacingRight=4;overflow=hidden;rotatable=1;points=[[0,0.5],[1,0.5]];portConstraint=eastwest;rounded=0;container=0;backgroundOutline=0;movable=1;resizable=1;deletable=1;editable=1;locked=0;connectable=1;html=1;labelBorderColor=none;labelBackgroundColor=none;" parent="wLuvKEZRffohtmjX3gD9-61" vertex="1">
          <mxGeometry x="39" y="585.7184115523467" width="425.0000000000001" height="25.953068592057768" as="geometry" />
        </mxCell>
        <mxCell id="30" value="# allStates: Vector&amp;lt;GameState*&amp;gt;" style="text;strokeColor=none;fillColor=none;align=left;verticalAlign=top;spacingLeft=4;spacingRight=4;overflow=hidden;rotatable=1;points=[[0,0.5],[1,0.5]];portConstraint=eastwest;rounded=0;container=0;backgroundOutline=0;movable=1;resizable=1;deletable=1;editable=1;locked=0;connectable=1;html=1;labelBorderColor=none;labelBackgroundColor=none;" parent="wLuvKEZRffohtmjX3gD9-61" vertex="1">
          <mxGeometry x="39" y="611.6714801444043" width="425.0000000000001" height="25.953068592057768" as="geometry" />
        </mxCell>
        <mxCell id="43" value="# lastPerfInfoFrame: int" style="text;strokeColor=none;fillColor=none;align=left;verticalAlign=top;spacingLeft=4;spacingRight=4;overflow=hidden;rotatable=1;points=[[0,0.5],[1,0.5]];portConstraint=eastwest;rounded=0;container=0;backgroundOutline=0;movable=1;resizable=1;deletable=1;editable=1;locked=0;connectable=1;html=1;labelBorderColor=none;labelBackgroundColor=none;" parent="wLuvKEZRffohtmjX3gD9-61" vertex="1">
          <mxGeometry x="39" y="637.6245487364622" width="425.0000000000001" height="25.953068592057768" as="geometry" />
        </mxCell>
        <mxCell id="44" value="# lastPerfInfoTime: Clock::time_point" style="text;strokeColor=none;fillColor=none;align=left;verticalAlign=top;spacingLeft=4;spacingRight=4;overflow=hidden;rotatable=1;points=[[0,0.5],[1,0.5]];portConstraint=eastwest;rounded=0;container=0;backgroundOutline=0;movable=1;resizable=1;deletable=1;editable=1;locked=0;connectable=1;html=1;labelBorderColor=none;labelBackgroundColor=none;" parent="wLuvKEZRffohtmjX3gD9-61" vertex="1">
          <mxGeometry x="39" y="663.5776173285199" width="425.0000000000001" height="25.953068592057768" as="geometry" />
        </mxCell>
        <mxCell id="45" value="# accumulatedNeeded: Clock::duration" style="text;strokeColor=none;fillColor=none;align=left;verticalAlign=top;spacingLeft=4;spacingRight=4;overflow=hidden;rotatable=1;points=[[0,0.5],[1,0.5]];portConstraint=eastwest;rounded=0;container=0;backgroundOutline=0;movable=1;resizable=1;deletable=1;editable=1;locked=0;connectable=1;html=1;labelBorderColor=none;labelBackgroundColor=none;" parent="wLuvKEZRffohtmjX3gD9-61" vertex="1">
          <mxGeometry x="39" y="689.5306859205776" width="425.0000000000001" height="25.953068592057768" as="geometry" />
        </mxCell>
        <mxCell id="4" value="" style="line;strokeWidth=1;fillColor=none;align=left;verticalAlign=middle;spacingTop=-1;spacingLeft=3;spacingRight=3;rotatable=1;labelPosition=right;points=[];portConstraint=eastwest;rounded=0;container=0;backgroundOutline=0;movable=1;resizable=1;deletable=1;editable=1;locked=0;connectable=1;html=1;labelBorderColor=none;labelBackgroundColor=none;" parent="wLuvKEZRffohtmjX3gD9-61" vertex="1">
          <mxGeometry x="39" y="715.4837545126354" width="425.0000000000001" height="7.985559566787005" as="geometry" />
        </mxCell>
        <mxCell id="5" value="+ IsRunning(): bool" style="text;strokeColor=none;fillColor=none;align=left;verticalAlign=top;spacingLeft=4;spacingRight=4;overflow=hidden;rotatable=1;points=[[0,0.5],[1,0.5]];portConstraint=eastwest;rounded=0;container=0;backgroundOutline=0;movable=1;resizable=1;deletable=1;editable=1;locked=0;connectable=1;html=1;labelBorderColor=none;labelBackgroundColor=none;" parent="wLuvKEZRffohtmjX3gD9-61" vertex="1">
          <mxGeometry x="39" y="723.4693140794225" width="425.0000000000001" height="25.953068592057768" as="geometry" />
        </mxCell>
        <mxCell id="36" value="+ Game(windowTitle: const char*, windowSize: SDL_Point, vsync: bool)" style="text;strokeColor=none;fillColor=none;align=left;verticalAlign=top;spacingLeft=4;spacingRight=4;overflow=hidden;rotatable=1;points=[[0,0.5],[1,0.5]];portConstraint=eastwest;rounded=0;container=0;backgroundOutline=0;movable=1;resizable=1;deletable=1;editable=1;locked=0;connectable=1;html=1;labelBorderColor=none;labelBackgroundColor=none;" parent="wLuvKEZRffohtmjX3gD9-61" vertex="1">
          <mxGeometry x="39" y="749.4223826714801" width="425.0000000000001" height="25.953068592057768" as="geometry" />
        </mxCell>
        <mxCell id="32" value="+ HandleEvent(event: SDL_Event): bool" style="text;strokeColor=none;fillColor=none;align=left;verticalAlign=top;spacingLeft=4;spacingRight=4;overflow=hidden;rotatable=1;points=[[0,0.5],[1,0.5]];portConstraint=eastwest;rounded=0;container=0;backgroundOutline=0;movable=1;resizable=1;deletable=1;editable=1;locked=0;connectable=1;html=1;labelBorderColor=none;labelBackgroundColor=none;" parent="wLuvKEZRffohtmjX3gD9-61" vertex="1">
          <mxGeometry x="39" y="775.375451263538" width="425.0000000000001" height="25.953068592057768" as="geometry" />
        </mxCell>
        <mxCell id="33" value="+ Run(): int" style="text;strokeColor=none;fillColor=none;align=left;verticalAlign=top;spacingLeft=4;spacingRight=4;overflow=hidden;rotatable=1;points=[[0,0.5],[1,0.5]];portConstraint=eastwest;rounded=0;container=0;backgroundOutline=0;movable=1;resizable=1;deletable=1;editable=1;locked=0;connectable=1;html=1;labelBorderColor=none;labelBackgroundColor=none;" parent="wLuvKEZRffohtmjX3gD9-61" vertex="1">
          <mxGeometry x="39" y="801.3285198555957" width="425.0000000000001" height="25.953068592057768" as="geometry" />
        </mxCell>
        <mxCell id="34" value="+ SetNextState(index: int): void" style="text;strokeColor=none;fillColor=none;align=left;verticalAlign=top;spacingLeft=4;spacingRight=4;overflow=hidden;rotatable=1;points=[[0,0.5],[1,0.5]];portConstraint=eastwest;rounded=0;container=0;backgroundOutline=0;movable=1;resizable=1;deletable=1;editable=1;locked=0;connectable=1;html=1;labelBorderColor=none;labelBackgroundColor=none;" parent="wLuvKEZRffohtmjX3gD9-61" vertex="1">
          <mxGeometry x="39" y="827.2815884476536" width="425.0000000000001" height="25.953068592057768" as="geometry" />
        </mxCell>
        <mxCell id="42" value="+ SetPerfDrawMode(mode: PerformaceDrawMode): void" style="text;strokeColor=none;fillColor=none;align=left;verticalAlign=top;spacingLeft=4;spacingRight=4;overflow=hidden;rotatable=1;points=[[0,0.5],[1,0.5]];portConstraint=eastwest;rounded=0;container=0;backgroundOutline=0;movable=1;resizable=1;deletable=1;editable=1;locked=0;connectable=1;html=1;labelBorderColor=none;labelBackgroundColor=none;" parent="wLuvKEZRffohtmjX3gD9-61" vertex="1">
          <mxGeometry x="39" y="853.2346570397112" width="425.0000000000001" height="25.953068592057768" as="geometry" />
        </mxCell>
        <mxCell id="35" value="# ActivateNextState(): void" style="text;strokeColor=none;fillColor=none;align=left;verticalAlign=top;spacingLeft=4;spacingRight=4;overflow=hidden;rotatable=1;points=[[0,0.5],[1,0.5]];portConstraint=eastwest;rounded=0;container=0;backgroundOutline=0;movable=1;resizable=1;deletable=1;editable=1;locked=0;connectable=1;html=1;labelBorderColor=none;labelBackgroundColor=none;" parent="wLuvKEZRffohtmjX3gD9-61" vertex="1">
          <mxGeometry x="39" y="879.1877256317691" width="425.0000000000001" height="25.953068592057768" as="geometry" />
        </mxCell>
        <mxCell id="46" value="# AverageMSecPerFrame(): float" style="text;strokeColor=none;fillColor=none;align=left;verticalAlign=top;spacingLeft=4;spacingRight=4;overflow=hidden;rotatable=1;points=[[0,0.5],[1,0.5]];portConstraint=eastwest;rounded=0;container=0;backgroundOutline=0;movable=1;resizable=1;deletable=1;editable=1;locked=0;connectable=1;html=1;labelBorderColor=none;labelBackgroundColor=none;" parent="wLuvKEZRffohtmjX3gD9-61" vertex="1">
          <mxGeometry x="39" y="905.1407942238268" width="425.0000000000001" height="25.953068592057768" as="geometry" />
        </mxCell>
        <mxCell id="50" value="# ResetPerformanceInfo(current Clock::time_point): void" style="text;strokeColor=none;fillColor=none;align=left;verticalAlign=top;spacingLeft=4;spacingRight=4;overflow=hidden;rotatable=1;points=[[0,0.5],[1,0.5]];portConstraint=eastwest;rounded=0;container=0;backgroundOutline=0;movable=1;resizable=1;deletable=1;editable=1;locked=0;connectable=1;html=1;labelBorderColor=none;labelBackgroundColor=none;" parent="wLuvKEZRffohtmjX3gD9-61" vertex="1">
          <mxGeometry x="39" y="931.0938628158846" width="425.0000000000001" height="25.953068592057768" as="geometry" />
        </mxCell>
        <mxCell id="47" value="# OutputPerformanceInfo(current: Clock::time_point, needed: Clock::duration" style="text;strokeColor=none;fillColor=none;align=left;verticalAlign=top;spacingLeft=4;spacingRight=4;overflow=hidden;rotatable=1;points=[[0,0.5],[1,0.5]];portConstraint=eastwest;rounded=0;container=0;backgroundOutline=0;movable=1;resizable=1;deletable=1;editable=1;locked=0;connectable=1;html=1;labelBorderColor=none;labelBackgroundColor=none;" parent="wLuvKEZRffohtmjX3gD9-61" vertex="1">
          <mxGeometry x="39" y="957.0469314079423" width="425.0000000000001" height="25.953068592057768" as="geometry" />
        </mxCell>
        <mxCell id="37" value="&amp;lt;&amp;lt;enumeration&amp;gt;&amp;gt; PerformanceDrawMode" style="swimlane;fontStyle=1;align=center;verticalAlign=top;childLayout=stackLayout;horizontal=1;startSize=26;horizontalStack=0;resizeParent=1;resizeParentMax=0;resizeLast=0;collapsible=1;marginBottom=0;labelBackgroundColor=none;labelBorderColor=none;rounded=0;container=0;backgroundOutline=0;movable=1;resizable=1;rotatable=1;deletable=1;editable=1;locked=0;connectable=1;html=1;" parent="wLuvKEZRffohtmjX3gD9-61" vertex="1">
          <mxGeometry x="39.000000000000014" y="1024" width="270.4" height="88" as="geometry">
            <mxRectangle x="124.8" y="1200" width="270" height="50" as="alternateBounds" />
          </mxGeometry>
        </mxCell>
        <mxCell id="41" value="# perfDrawMode" style="edgeStyle=none;html=1;rounded=0;backgroundOutline=0;movable=1;resizable=1;rotatable=1;deletable=1;editable=1;locked=0;connectable=1;exitX=0.32;exitY=1.141;exitDx=0;exitDy=0;exitPerimeter=0;" parent="wLuvKEZRffohtmjX3gD9-61" source="47" target="37" edge="1">
          <mxGeometry x="-0.1045" y="63" relative="1" as="geometry">
            <mxPoint as="offset" />
          </mxGeometry>
        </mxCell>
        <mxCell id="38" value="None&lt;br&gt;Title&lt;br&gt;OStream" style="text;strokeColor=none;fillColor=none;align=left;verticalAlign=top;spacingLeft=4;spacingRight=4;overflow=hidden;rotatable=1;points=[[0,0.5],[1,0.5]];portConstraint=eastwest;rounded=0;container=0;backgroundOutline=0;movable=1;resizable=1;deletable=1;editable=1;locked=0;connectable=1;html=1;labelBorderColor=none;labelBackgroundColor=none;" parent="wLuvKEZRffohtmjX3gD9-61" vertex="1">
          <mxGeometry x="39.000000000000014" y="1050" width="270.4" height="54" as="geometry" />
        </mxCell>
        <mxCell id="39" value="" style="line;strokeWidth=1;fillColor=none;align=left;verticalAlign=middle;spacingTop=-1;spacingLeft=3;spacingRight=3;rotatable=1;labelPosition=right;points=[];portConstraint=eastwest;rounded=0;container=0;backgroundOutline=0;movable=1;resizable=1;deletable=1;editable=1;locked=0;connectable=1;html=1;labelBorderColor=none;labelBackgroundColor=none;" parent="wLuvKEZRffohtmjX3gD9-61" vertex="1">
          <mxGeometry x="39.000000000000014" y="1104" width="270.4" height="8" as="geometry" />
        </mxCell>
      </root>
    </mxGraphModel>
  </diagram>
</mxfile>
